<mxfile host="app.diagrams.net" modified="2024-07-18T01:58:51.926Z" agent="Mozilla/5.0 (X11; Ubuntu; Linux x86_64; rv:128.0) Gecko/20100101 Firefox/128.0" version="24.7.1" etag="gb47lZiygcEhktV1Zqxj" type="github">
  <diagram name="Page-1" id="fTPm5DQP8wG06u_MqmHy">
    <mxGraphModel>
      <root>
        <mxCell id="0" />
        <mxCell id="1" parent="0" />
      </root>
    </mxGraphModel>
  </diagram>
</mxfile>
